<svg width="179" height="179" viewBox="0 0 179 179" fill="none" xmlns="http://www.w3.org/2000/svg">
<rect y="6" width="179" height="173" rx="86.5" fill="#181616"/>
<g clip-path="url(#clip0_2003_6792)">
<path fill-rule="evenodd" clip-rule="evenodd" d="M89.5015 3.72949C68.2544 3.74052 47.704 11.2658 31.5249 24.9598C15.3458 38.6538 4.59313 57.6235 1.18945 78.4769C-2.21422 99.3303 1.95305 120.708 12.9462 138.786C23.9394 156.865 41.0415 170.466 61.1946 177.158C65.6407 177.983 67.3154 175.227 67.3154 172.884C67.3154 170.541 67.2265 163.748 67.1968 156.321C42.2987 161.7 37.0375 145.814 37.0375 145.814C32.9767 135.499 27.1078 132.788 27.1078 132.788C18.9863 127.276 27.7155 127.38 27.7155 127.38C36.7115 128.013 41.4392 136.56 41.4392 136.56C49.4125 150.161 62.3802 146.227 67.4784 143.928C68.2787 138.166 70.6055 134.247 73.1695 132.021C53.2806 129.782 32.3839 122.148 32.3839 88.0491C32.2606 79.2056 35.561 70.6535 41.6022 64.162C40.6833 61.9221 37.6155 52.8742 42.4765 40.5843C42.4765 40.5843 49.9905 38.1971 67.0932 49.7059C81.7627 45.7171 97.2403 45.7171 111.91 49.7059C128.998 38.1971 136.497 40.5843 136.497 40.5843C141.373 52.8447 138.305 61.8926 137.386 64.162C143.446 70.6545 146.754 79.2216 146.619 88.0786C146.619 122.251 125.678 129.782 105.759 131.977C108.961 134.748 111.821 140.156 111.821 148.467C111.821 160.374 111.717 169.952 111.717 172.884C111.717 175.257 113.333 178.027 117.868 177.158C138.023 170.465 155.127 156.862 166.12 138.78C177.113 120.698 181.278 99.3177 177.87 78.4624C174.463 57.607 163.705 38.6371 147.52 24.9455C131.336 11.2539 110.781 3.73353 89.5311 3.72949H89.5015Z" fill="white"/>
<path d="M33.8939 131.506C33.7012 131.948 32.9899 132.08 32.4119 131.771C31.8339 131.461 31.4041 130.887 31.6116 130.43C31.8191 129.973 32.5156 129.855 33.0936 130.165C33.6716 130.474 34.1162 131.064 33.8939 131.506Z" fill="white"/>
<path d="M37.5257 135.529C37.2188 135.682 36.8677 135.725 36.5324 135.65C36.1972 135.575 35.8987 135.386 35.688 135.116C35.11 134.497 34.9914 133.642 35.436 133.259C35.8806 132.876 36.681 133.053 37.259 133.672C37.837 134.291 37.9703 135.145 37.5257 135.529Z" fill="white"/>
<path d="M41.052 140.642C40.5036 141.025 39.5699 140.642 39.0512 139.876C38.9078 139.738 38.7937 139.573 38.7158 139.391C38.6379 139.209 38.5977 139.013 38.5977 138.815C38.5977 138.617 38.6379 138.42 38.7158 138.238C38.7937 138.056 38.9078 137.891 39.0512 137.754C39.5996 137.385 40.5333 137.754 41.052 138.505C41.5707 139.257 41.5855 140.259 41.052 140.642V140.642Z" fill="white"/>
<path d="M45.8396 145.593C45.3506 146.138 44.3576 145.991 43.5425 145.254C42.7274 144.517 42.5347 143.515 43.0237 142.985C43.5128 142.454 44.5058 142.602 45.3505 143.324C46.1953 144.046 46.3583 145.063 45.8396 145.593V145.593Z" fill="white"/>
<path d="M52.5519 148.482C52.3296 149.174 51.3218 149.484 50.314 149.189C49.3062 148.894 48.6393 148.069 48.832 147.362C49.0246 146.654 50.0473 146.33 51.0699 146.654C52.0925 146.979 52.7446 147.76 52.5519 148.482Z" fill="white"/>
<path d="M59.8736 148.983C59.8736 149.705 59.0437 150.324 57.9766 150.338C56.9096 150.353 56.0352 149.764 56.0352 149.042C56.0352 148.319 56.865 147.701 57.9321 147.686C58.9992 147.671 59.8736 148.246 59.8736 148.983Z" fill="white"/>
<path d="M66.691 147.847C66.8244 148.569 66.0834 149.321 65.0163 149.498C63.9493 149.675 63.0156 149.247 62.8822 148.54C62.7488 147.833 63.5195 147.066 64.5569 146.875C65.5943 146.683 66.5577 147.125 66.691 147.847Z" fill="white"/>
</g>
<defs>
<clipPath id="clip0_2003_6792">
<rect width="179" height="179" fill="white"/>
</clipPath>
</defs>
</svg>
