<svg width="441" height="193" viewBox="0 0 441 193" fill="none" xmlns="http://www.w3.org/2000/svg">
<g filter="url(#filter0_dd_160_3412)">
<path fill-rule="evenodd" clip-rule="evenodd" d="M77.4673 154.53C109.348 173.027 150.113 162.05 168.519 130.013C186.925 97.9757 176.002 57.01 144.122 38.5134C112.242 20.0168 71.4762 30.9935 53.0701 63.0306C34.6639 95.0677 45.5869 136.033 77.4673 154.53ZM63.7043 107.433C61.3924 119.572 61.9642 130.85 65.3817 139.681C52.5914 126.101 46.5639 107.456 48.7275 89.1027C50.3026 91.9575 52.3313 94.9 54.742 97.8711C57.2934 101.015 60.2998 104.225 63.7043 107.433ZM57.9707 95.2255C54.022 90.359 51.337 85.7964 50.0257 81.8204C51.3987 76.1 53.6012 70.4789 56.6778 65.1238C61.0596 57.497 66.7931 51.1434 73.3985 46.192C74.9724 49.0419 76.9981 51.979 79.4044 54.9446C80.8781 56.7609 82.5037 58.5991 84.2702 60.4461C84.5778 59.7618 85.0079 59.1319 85.5465 58.5907C86.022 58.1129 86.5663 57.72 87.156 57.4218C85.5116 55.6964 84.0008 53.9848 82.6331 52.2991C80.2223 49.328 78.2826 46.4702 76.839 43.79C91.0294 34.5787 108.575 31.4123 125.282 35.42C113.611 37.2251 100.862 44.8346 89.7616 56.7548C89.8293 56.7526 89.8971 56.7515 89.9651 56.7515L95.5911 56.7515C100.711 51.7229 106.098 47.6713 111.457 44.7328C122.418 38.7232 132.669 37.6299 140.487 41.3242L135.607 49.8192C135.758 49.9447 135.903 50.0777 136.043 50.218C137.123 51.3034 137.767 52.7452 137.861 54.2683L144.062 43.4757C150.824 48.5311 154.801 57.8312 155.095 70.0507C155.285 77.9785 153.896 86.8758 150.862 96.0435C146.704 94.781 142.349 93.2004 137.873 91.3125L137.873 95.8419C146.628 99.4172 154.959 101.854 162.321 103.052C166.08 103.663 169.623 103.957 172.866 103.902C171.902 112.126 169.293 120.293 164.911 127.92C161.835 133.275 158.092 138.002 153.848 142.057C149.766 142.904 144.492 142.849 138.324 141.846C135.241 141.344 131.964 140.611 128.536 139.652C129.647 138.573 130.745 137.452 131.827 136.29C131.792 136.291 131.756 136.292 131.721 136.292C131.689 136.293 131.656 136.293 131.624 136.293L125.998 136.293C125.313 136.965 124.625 137.619 123.932 138.256C117.779 136.252 111.237 133.578 104.546 130.267V134.919C109.911 137.493 115.187 139.672 120.259 141.434C116.922 144.149 113.522 146.452 110.132 148.311C99.4548 154.165 89.4515 155.354 81.7136 151.996L86.5222 143.627C86.1735 143.395 85.8463 143.128 85.5464 142.826C84.7223 141.998 84.1522 140.963 83.8864 139.842L78.0723 149.961C70.9793 145.004 66.7963 135.537 66.4949 122.993C66.4017 119.114 66.6867 115.003 67.3575 110.741C69.8629 112.924 72.5446 115.096 75.3843 117.235L75.3843 113.268C75.3843 112.852 75.4245 112.446 75.5011 112.053C72.9284 110.033 70.5098 107.994 68.2603 105.956C69.1027 102.118 70.246 98.1864 71.6953 94.218C70.6405 93.9361 69.6679 93.3788 68.8828 92.5898C68.619 92.3248 68.3813 92.0384 68.1712 91.7349C66.7866 95.4015 65.6483 99.052 64.7554 102.647C62.215 100.144 59.9439 97.6575 57.9707 95.2255ZM96.3074 157.624C114.405 161.965 133.487 157.888 148.222 146.828C144.974 146.885 141.424 146.591 137.658 145.978C133.673 145.33 129.404 144.318 124.936 142.96C115.632 151.041 105.626 156.182 96.3074 157.624ZM162.986 98.9191C166.752 99.5316 170.185 99.7908 173.216 99.7071C174.059 82.7519 168.015 65.899 156.208 53.3628C160.692 64.95 160.277 80.7504 154.876 97.1799C157.698 97.9192 160.411 98.5002 162.986 98.9191Z" fill="url(#paint0_linear_160_3412)"/>
</g>
<path d="M81.3245 79.5099H72.9927L72.9922 79.9999L72.9922 87.8829L81.3245 87.8827L81.3245 79.5099H89.6564V113.001H81.3245L81.3241 121.374L89.6564 121.374V138.119H97.9882V113.001H106.32V104.628L122.984 104.628V129.747H131.315V121.374L139.647 121.374L139.647 113.001H147.979V104.628L139.647 104.628L139.647 113.001H131.315L131.315 54.3916H122.984V62.7644L114.652 62.7644V71.1372H106.32V79.5099L114.651 79.5101L114.652 71.1372H122.897L122.983 71.1373L122.983 79.3594L122.984 79.5099V96.2555H106.32L106.32 104.628L97.9882 104.628L97.9882 62.7644H89.6564V71.1372H81.3245V79.5099Z" fill="#E5E1E6"/>
<path d="M190.471 29.5283H200.404V44.4136H228.31V29.5283H238.244V69.9148H228.31V54.1064H200.404V69.9148H190.471V29.5283Z" fill="#E5E1E6"/>
<path d="M251.602 36.7402C252.214 34.6632 253.229 32.9516 254.645 31.6054C256.099 30.2207 258.09 29.5283 260.616 29.5283H272.617C275.182 29.5283 277.23 30.2207 278.761 31.6054C280.292 32.9516 281.364 34.6632 281.976 36.7402L291.853 69.9148H280.828L278.129 60.222H259.927L262.224 50.5293H275.431L272.33 39.2211H261.191L252.693 69.9148H241.668L251.602 36.7402Z" fill="#E5E1E6"/>
<path d="M294.698 36.7402C294.698 35.7017 294.889 34.7401 295.272 33.8555C295.655 32.9708 296.153 32.2207 296.765 31.6054C297.416 30.9515 298.162 30.4514 299.004 30.1053C299.885 29.7206 300.784 29.5283 301.703 29.5283H339.428V39.2211H304.632V60.222H339.428V69.9148H302.105C301.072 69.9148 300.095 69.7225 299.177 69.3379C298.258 68.9532 297.473 68.4532 296.823 67.8378C296.172 67.1839 295.655 66.4339 295.272 65.5877C294.889 64.703 294.698 63.7991 294.698 62.876V36.7402Z" fill="#E5E1E6"/>
<path d="M344.617 29.5283H354.55V45.3368H363.508L375.681 29.5283H387.165L372.178 49.1446L389.978 69.9148H377.289L364.025 55.0295H354.55V69.9148H344.617V29.5283Z" fill="#E5E1E6"/>
<path d="M207.754 85.7972H188.461V76.1044H236.865V85.7972H217.687V116.491H207.754V85.7972Z" fill="#E5E1E6"/>
<path fill-rule="evenodd" clip-rule="evenodd" d="M240.587 83.3163C240.587 82.2778 240.778 81.3162 241.161 80.4315C241.544 79.5469 242.042 78.7969 242.654 78.1814C243.305 77.5276 244.051 77.0275 244.893 76.6814C245.774 76.2967 246.673 76.1044 247.592 76.1044H281.642C282.675 76.1044 283.651 76.2967 284.57 76.6814C285.489 77.066 286.274 77.5853 286.924 78.2391C287.575 78.8545 288.092 79.6046 288.475 80.4893C288.858 81.3354 289.049 82.2201 289.049 83.1432V109.279C289.049 110.318 288.858 111.279 288.475 112.164C288.092 113.048 287.575 113.818 286.924 114.472C286.312 115.087 285.565 115.587 284.685 115.972C283.843 116.318 282.962 116.491 282.044 116.491H247.994C246.961 116.491 245.984 116.299 245.066 115.914C244.147 115.529 243.362 115.029 242.711 114.414C242.061 113.76 241.544 113.01 241.161 112.164C240.778 111.279 240.587 110.375 240.587 109.452V83.3163ZM279.115 106.798V85.7972H250.52V106.798H279.115Z" fill="#E5E1E6"/>
<path fill-rule="evenodd" clip-rule="evenodd" d="M294.207 83.3163C294.207 82.2778 294.398 81.3162 294.781 80.4315C295.164 79.5469 295.661 78.7969 296.274 78.1814C296.925 77.5276 297.671 77.0275 298.513 76.6814C299.394 76.2967 300.293 76.1044 301.212 76.1044H328.716C329.749 76.1044 330.706 76.2967 331.587 76.6814C332.467 77.066 333.214 77.5853 333.826 78.2391C334.477 78.8545 334.975 79.6046 335.319 80.4893C335.702 81.3354 335.893 82.2201 335.893 83.1432V91.5667C336.927 91.5667 337.846 91.759 338.649 92.1436C339.492 92.5283 340.2 93.0475 340.774 93.7014C341.348 94.3168 341.769 95.0668 342.037 95.9515C342.343 96.7977 342.497 97.6824 342.497 98.6054V109.279C342.497 110.318 342.305 111.279 341.922 112.164C341.54 113.048 341.023 113.818 340.372 114.472C339.76 115.087 339.013 115.587 338.133 115.972C337.291 116.318 336.41 116.491 335.491 116.491H294.207V83.3163ZM332.563 106.798V100.625H304.14V106.798H332.563ZM325.96 91.5667V85.7972H304.14V91.5667H325.96Z" fill="#E5E1E6"/>
<path d="M347.071 83.3163C347.071 82.2778 347.262 81.3162 347.645 80.4315C348.028 79.5469 348.525 78.7969 349.138 78.1814C349.789 77.5276 350.535 77.0275 351.377 76.6814C352.258 76.2967 353.157 76.1044 354.076 76.1044H390.25V85.7972H357.004V90.9897H385.714V100.682H357.004V106.798H390.25V116.491H354.478C353.444 116.491 352.468 116.299 351.55 115.914C350.631 115.529 349.846 115.029 349.195 114.414C348.544 113.76 348.028 113.01 347.645 112.164C347.262 111.279 347.071 110.375 347.071 109.452V83.3163Z" fill="#E5E1E6"/>
<path d="M190.471 130.341C190.471 129.302 190.662 128.34 191.045 127.456C191.428 126.571 191.925 125.821 192.538 125.206C193.188 124.552 193.935 124.052 194.777 123.706C195.658 123.321 196.557 123.129 197.476 123.129H230.836V132.821H200.404V142.11H226.243V151.803H200.404V163.515H190.471V130.341Z" fill="#E5E1E6"/>
<path d="M234.531 130.341C234.531 129.302 234.722 128.34 235.105 127.456C235.488 126.571 235.986 125.821 236.598 125.206C237.249 124.552 237.995 124.052 238.837 123.706C239.718 123.321 240.617 123.129 241.536 123.129H277.71V132.821H244.465V138.014H273.174V147.707H244.465V153.822H277.71V163.515H241.938C240.905 163.515 239.928 163.323 239.01 162.938C238.091 162.554 237.306 162.053 236.656 161.438C236.005 160.784 235.488 160.034 235.105 159.188C234.722 158.303 234.531 157.399 234.531 156.476V130.341Z" fill="#E5E1E6"/>
<path d="M282.88 153.822H321.294V147.707H290.057C289.024 147.707 288.067 147.514 287.186 147.13C286.306 146.745 285.54 146.245 284.89 145.63C284.277 144.976 283.779 144.226 283.397 143.38C283.052 142.495 282.88 141.591 282.88 140.668V130.341C282.88 129.302 283.071 128.34 283.454 127.456C283.837 126.571 284.335 125.821 284.947 125.206C285.598 124.552 286.344 124.052 287.186 123.706C288.067 123.321 288.966 123.129 289.885 123.129H326.748V132.821H292.813V138.014H324.05C325.083 138.014 326.04 138.206 326.921 138.591C327.801 138.976 328.547 139.495 329.16 140.149C329.811 140.764 330.308 141.514 330.653 142.399C331.036 143.245 331.227 144.13 331.227 145.053V156.303C331.227 157.342 331.036 158.303 330.653 159.188C330.27 160.073 329.753 160.842 329.103 161.496C328.49 162.111 327.744 162.611 326.863 162.996C326.021 163.342 325.141 163.515 324.222 163.515H282.88V153.822Z" fill="#E5E1E6"/>
<path d="M350.517 132.821H331.224V123.129H379.629V132.821H360.451V163.515H350.517V132.821Z" fill="#E5E1E6"/>
<path fill-rule="evenodd" clip-rule="evenodd" d="M396.035 84.1627C396.035 82.9741 396.254 81.8735 396.692 80.861C397.131 79.8484 397.7 78.99 398.401 78.2856C399.146 77.5372 400 76.9649 400.964 76.5687C401.972 76.1285 403.002 75.9084 404.053 75.9084H431.789C432.972 75.9084 434.067 76.1285 435.075 76.5687C436.082 77.009 436.937 77.6032 437.638 78.3516C438.383 79.056 438.952 79.9145 439.346 80.927C439.785 81.8955 440.004 82.9081 440.004 83.9646L439.939 92.3305C439.939 93.387 439.72 94.3996 439.282 95.368C438.973 96.1613 438.556 96.86 438.032 97.4641C438.063 97.4978 438.094 97.5319 438.124 97.5663C438.698 98.1817 439.119 98.9317 439.387 99.8164C439.694 100.663 439.847 104.124 439.847 105.047V109.279C439.847 110.317 439.655 111.279 439.273 112.164C438.89 113.048 438.373 113.818 437.722 114.471C437.11 115.087 436.363 115.587 435.483 115.972C434.641 116.318 433.76 116.491 432.841 116.491H424.151V108.117L429.913 108.086V102.963H403.988C402.937 102.963 401.907 102.743 400.9 102.303C399.936 101.907 399.081 101.334 398.337 100.586C397.636 99.8817 397.066 99.0233 396.628 98.0107C396.19 96.9982 395.971 95.8976 395.971 94.709L396.035 84.1627ZM428.634 86.006V92.6095H407.405V86.006H428.634Z" fill="#E5E1E6"/>
<path d="M406.218 108.117V116.491H395.971V104.252C395.971 104.252 397.892 108.117 403.016 108.117H406.218Z" fill="#E5E1E6"/>
<defs>
<filter id="filter0_dd_160_3412" x="0.249666" y="0.275494" width="221.091" height="192.492" filterUnits="userSpaceOnUse" color-interpolation-filters="sRGB">
<feFlood flood-opacity="0" result="BackgroundImageFix"/>
<feColorMatrix in="SourceAlpha" type="matrix" values="0 0 0 0 0 0 0 0 0 0 0 0 0 0 0 0 0 0 127 0" result="hardAlpha"/>
<feOffset dx="14.6264"/>
<feGaussianBlur stdDeviation="14.6264"/>
<feComposite in2="hardAlpha" operator="out"/>
<feColorMatrix type="matrix" values="0 0 0 0 0.564706 0 0 0 0 0.580392 0 0 0 0 1 0 0 0 0.3 0"/>
<feBlend mode="normal" in2="BackgroundImageFix" result="effect1_dropShadow_160_3412"/>
<feColorMatrix in="SourceAlpha" type="matrix" values="0 0 0 0 0 0 0 0 0 0 0 0 0 0 0 0 0 0 127 0" result="hardAlpha"/>
<feOffset dx="-14.6264"/>
<feGaussianBlur stdDeviation="14.6264"/>
<feComposite in2="hardAlpha" operator="out"/>
<feColorMatrix type="matrix" values="0 0 0 0 1 0 0 0 0 0.890196 0 0 0 0 0.494118 0 0 0 0.3 0"/>
<feBlend mode="normal" in2="effect1_dropShadow_160_3412" result="effect2_dropShadow_160_3412"/>
<feBlend mode="normal" in="SourceGraphic" in2="effect2_dropShadow_160_3412" result="shape"/>
</filter>
<linearGradient id="paint0_linear_160_3412" x1="63.0188" y1="48.1759" x2="159.709" y2="144.393" gradientUnits="userSpaceOnUse">
<stop stop-color="#FFE27D"/>
<stop offset="0.505208" stop-color="#64E3FF"/>
<stop offset="1" stop-color="#9192FF"/>
</linearGradient>
</defs>
</svg>
